<svg width="512" height="512" viewBox="0 0 512 512" fill="none" xmlns="http://www.w3.org/2000/svg">
<rect x="2" y="2" width="508" height="508" rx="254" fill="#0A0A0A"/>
<path fill-rule="evenodd" clip-rule="evenodd" d="M345.726 171.556L371.172 146.11C371.055 145.984 370.937 145.859 370.819 145.733C399.978 175.028 418 215.417 418 260.016C418 349.486 345.47 422.016 256 422.016C166.53 422.016 94 349.486 94 260.016C94 213.977 113.205 172.423 144.041 142.929L166.948 170.876C144.121 193.681 130 225.2 130 260.016C130 329.604 186.412 386.016 256 386.016C325.588 386.016 382 329.604 382 260.016C382 225.544 368.157 194.305 345.726 171.556Z" fill="url(#paint0_linear_9_4)"/>
<path d="M316.855 199.16C328.891 211.196 337.088 226.531 340.409 243.226C343.73 259.92 342.025 277.225 335.511 292.951C328.998 308.676 317.967 322.118 303.814 331.574C289.661 341.031 273.022 346.078 256 346.078C238.978 346.078 222.339 341.031 208.186 331.574C194.033 322.117 183.003 308.676 176.489 292.951C169.975 277.225 168.27 259.92 171.591 243.226C174.912 226.531 183.109 211.196 195.145 199.16L223.224 227.24C216.742 233.723 212.328 241.982 210.539 250.973C208.751 259.964 209.668 269.284 213.177 277.754C216.685 286.223 222.626 293.463 230.248 298.556C237.871 303.649 246.833 306.368 256 306.368C265.168 306.368 274.129 303.649 281.752 298.556C289.374 293.463 295.315 286.223 298.823 277.754C302.332 269.284 303.25 259.964 301.461 250.973C299.673 241.982 295.258 233.723 288.776 227.24L173.055 111.781L199 89.0001L316.855 199.16Z" fill="url(#paint1_linear_9_4)"/>
<rect x="2" y="2" width="508" height="508" rx="254" stroke="url(#paint2_linear_9_4)" stroke-width="4"/>
<defs>
<linearGradient id="paint0_linear_9_4" x1="256" y1="142.929" x2="256" y2="441.633" gradientUnits="userSpaceOnUse">
<stop stop-color="#020617"/>
<stop offset="0.380208" stop-color="#6B21A8"/>
<stop offset="1" stop-color="#020617"/>
</linearGradient>
<linearGradient id="paint1_linear_9_4" x1="146.5" y1="123" x2="350" y2="300.5" gradientUnits="userSpaceOnUse">
<stop stop-color="#020617"/>
<stop offset="0.748675" stop-color="#CBD5E1"/>
<stop offset="0.976171" stop-color="#020617"/>
</linearGradient>
<linearGradient id="paint2_linear_9_4" x1="449.5" y1="427.5" x2="99" y2="75.5" gradientUnits="userSpaceOnUse">
<stop stop-color="#6B21A8"/>
<stop offset="1" stop-color="#6B21A8" stop-opacity="0.05"/>
</linearGradient>
</defs>
</svg>
