<svg width="514" height="514" viewBox="0 0 514 514" fill="none" xmlns="http://www.w3.org/2000/svg">
<g clip-path="url(#clip0_53_1660)">
<rect x="1" y="1" width="512" height="512" rx="256" fill="#0A0A0A"/>
<path d="M438.019 240.49C441.285 276.292 433.86 312.259 416.685 343.841C399.509 375.424 373.354 401.204 341.526 417.922C309.699 434.64 273.629 441.544 237.878 437.762C202.126 433.98 168.299 419.681 140.674 396.674C113.049 373.667 92.8672 342.985 82.6799 308.508C72.4926 274.031 72.7577 237.307 83.4417 202.98C94.1258 168.654 114.749 138.266 142.703 115.661C170.658 93.0548 204.687 79.2461 240.49 75.9807L244.617 121.236C217.766 123.685 192.243 134.041 171.277 150.995C150.312 167.95 134.844 190.74 126.831 216.485C118.818 242.23 118.619 269.773 126.26 295.631C133.9 321.489 149.037 344.501 169.756 361.756C190.475 379.011 215.845 389.735 242.658 392.572C269.472 395.408 296.524 390.23 320.395 377.691C344.265 365.153 363.882 345.818 376.763 322.131C389.645 298.444 395.214 271.469 392.765 244.617L438.019 240.49Z" fill="url(#paint0_linear_53_1660)"/>
<path d="M374.836 256.24C374.77 279.661 367.76 302.536 354.694 321.973C341.627 341.409 323.09 356.535 301.427 365.437C279.763 374.338 255.947 376.616 232.989 371.982C210.032 367.348 188.964 356.01 172.449 339.402C155.935 322.795 144.717 301.663 140.213 278.679C135.708 255.696 138.121 231.893 147.145 210.28C156.168 188.668 171.398 170.216 190.909 157.26C210.419 144.303 233.333 137.423 256.754 137.489L256.62 184.855C242.568 184.816 228.819 188.944 217.113 196.718C205.407 204.492 196.269 215.563 190.854 228.53C185.44 241.498 183.993 255.78 186.695 269.57C189.398 283.36 196.129 296.039 206.037 306.004C215.946 315.968 228.587 322.771 242.361 325.551C256.136 328.332 270.426 326.965 283.424 321.624C296.422 316.283 307.544 307.208 315.384 295.546C323.224 283.884 327.43 270.159 327.47 256.106L327.991 71.5733L375.358 71.7071L374.836 256.24Z" fill="url(#paint1_linear_53_1660)"/>
</g>
<rect x="0.5" y="0.5" width="513" height="513" rx="256.5" stroke="url(#paint2_linear_53_1660)"/>
<defs>
<linearGradient id="paint0_linear_53_1660" x1="373.326" y1="117.326" x2="140.674" y2="396.674" gradientUnits="userSpaceOnUse">
<stop stop-color="#0A0A0A"/>
<stop offset="0.510417" stop-color="#7C3AED"/>
<stop offset="1" stop-color="#0A0A0A"/>
</linearGradient>
<linearGradient id="paint1_linear_53_1660" x1="256.759" y1="71.4012" x2="256.085" y2="374.323" gradientUnits="userSpaceOnUse">
<stop stop-color="#0A0A0A" stop-opacity="0.5"/>
<stop offset="0.432292" stop-color="#FAFAFA" stop-opacity="0.75"/>
<stop offset="1" stop-color="#0A0A0A" stop-opacity="0.5"/>
</linearGradient>
<linearGradient id="paint2_linear_53_1660" x1="425.5" y1="449" x2="100" y2="76.5" gradientUnits="userSpaceOnUse">
<stop stop-color="#7C3AED" stop-opacity="0.5"/>
<stop offset="0.477858" stop-color="#F59E0B" stop-opacity="0.5"/>
<stop offset="1" stop-color="#7C3AED" stop-opacity="0.5"/>
</linearGradient>
<clipPath id="clip0_53_1660">
<rect x="1" y="1" width="512" height="512" rx="256" fill="white"/>
</clipPath>
</defs>
</svg>
