<svg width="512" height="512" viewBox="0 0 512 512" fill="none" xmlns="http://www.w3.org/2000/svg">
<g clip-path="url(#clip0_53_1660)">
<rect width="512" height="512" rx="256" fill="#0A0A0A"/>
<path d="M437.019 239.49C440.285 275.292 432.86 311.259 415.685 342.841C398.509 374.424 372.354 400.204 340.526 416.922C308.699 433.64 272.629 440.544 236.878 436.762C201.126 432.98 167.299 418.681 139.674 395.674C112.049 372.667 91.8672 341.985 81.6799 307.508C71.4926 273.031 71.7577 236.307 82.4417 201.98C93.1258 167.654 113.749 137.266 141.703 114.661C169.658 92.0548 203.687 78.2461 239.49 74.9807L243.617 120.236C216.766 122.685 191.243 133.041 170.277 149.995C149.312 166.95 133.844 189.74 125.831 215.485C117.818 241.23 117.619 268.773 125.26 294.631C132.9 320.489 148.037 343.501 168.756 360.756C189.475 378.011 214.845 388.735 241.658 391.572C268.472 394.408 295.524 389.23 319.395 376.691C343.265 364.153 362.882 344.818 375.763 321.131C388.645 297.444 394.214 270.469 391.765 243.617L437.019 239.49Z" fill="url(#paint0_linear_53_1660)"/>
<path d="M373.836 255.24C373.77 278.661 366.76 301.536 353.694 320.973C340.627 340.409 322.09 355.535 300.427 364.437C278.763 373.338 254.947 375.616 231.989 370.982C209.032 366.348 187.964 355.01 171.449 338.402C154.935 321.795 143.717 300.663 139.213 277.679C134.708 254.696 137.121 230.893 146.145 209.28C155.168 187.668 170.398 169.216 189.909 156.26C209.419 143.303 232.333 136.423 255.754 136.489L255.62 183.855C241.568 183.816 227.819 187.944 216.113 195.718C204.407 203.492 195.269 214.563 189.854 227.53C184.44 240.498 182.993 254.78 185.695 268.57C188.398 282.36 195.129 295.039 205.037 305.004C214.946 314.968 227.587 321.771 241.361 324.551C255.136 327.332 269.426 325.965 282.424 320.624C295.422 315.283 306.544 306.208 314.384 294.546C322.224 282.884 326.43 269.159 326.47 255.106L326.991 70.5733L374.358 70.7071L373.836 255.24Z" fill="url(#paint1_linear_53_1660)"/>
</g>
<defs>
<linearGradient id="paint0_linear_53_1660" x1="372.326" y1="116.326" x2="139.674" y2="395.674" gradientUnits="userSpaceOnUse">
<stop stop-color="#0A0A0A"/>
<stop offset="0.510417" stop-color="#7C3AED"/>
<stop offset="1" stop-color="#0A0A0A"/>
</linearGradient>
<linearGradient id="paint1_linear_53_1660" x1="255.759" y1="70.4012" x2="255.085" y2="373.323" gradientUnits="userSpaceOnUse">
<stop stop-color="#0A0A0A" stop-opacity="0.5"/>
<stop offset="0.432292" stop-color="#FAFAFA" stop-opacity="0.75"/>
<stop offset="1" stop-color="#0A0A0A" stop-opacity="0.5"/>
</linearGradient>
<clipPath id="clip0_53_1660">
<rect width="512" height="512" rx="256" fill="white"/>
</clipPath>
</defs>
</svg>
